<mxfile host="app.diagrams.net" agent="Mozilla/5.0 (Windows NT 10.0; Win64; x64) AppleWebKit/537.36 (KHTML, like Gecko) Chrome/140.0.0.0 Safari/537.36" version="28.2.0">
  <diagram id="C5RBs43oDa-KdzZeNtuy" name="Page-1">
    <mxGraphModel dx="1111" dy="465" grid="1" gridSize="10" guides="1" tooltips="1" connect="1" arrows="1" fold="1" page="1" pageScale="1" pageWidth="827" pageHeight="1169" math="0" shadow="0">
      <root>
        <mxCell id="WIyWlLk6GJQsqaUBKTNV-0" />
        <mxCell id="WIyWlLk6GJQsqaUBKTNV-1" parent="WIyWlLk6GJQsqaUBKTNV-0" />
        <mxCell id="NtFpcMVyrMoMEvNkyP2i-44" value="" style="rounded=0;whiteSpace=wrap;html=1;direction=south;" vertex="1" parent="WIyWlLk6GJQsqaUBKTNV-1">
          <mxGeometry x="62" y="350" width="100" height="210" as="geometry" />
        </mxCell>
        <mxCell id="NtFpcMVyrMoMEvNkyP2i-43" value="" style="rounded=0;whiteSpace=wrap;html=1;direction=south;" vertex="1" parent="WIyWlLk6GJQsqaUBKTNV-1">
          <mxGeometry x="277" y="350" width="100" height="180" as="geometry" />
        </mxCell>
        <mxCell id="WIyWlLk6GJQsqaUBKTNV-2" value="" style="rounded=0;html=1;jettySize=auto;orthogonalLoop=1;fontSize=11;endArrow=block;endFill=0;endSize=8;strokeWidth=1;shadow=0;labelBackgroundColor=none;edgeStyle=orthogonalEdgeStyle;" parent="WIyWlLk6GJQsqaUBKTNV-1" source="WIyWlLk6GJQsqaUBKTNV-3" edge="1">
          <mxGeometry relative="1" as="geometry">
            <mxPoint x="220" y="170" as="targetPoint" />
          </mxGeometry>
        </mxCell>
        <mxCell id="WIyWlLk6GJQsqaUBKTNV-3" value="Home" style="rounded=1;whiteSpace=wrap;html=1;fontSize=12;glass=0;strokeWidth=1;shadow=0;" parent="WIyWlLk6GJQsqaUBKTNV-1" vertex="1">
          <mxGeometry x="350" y="80" width="120" height="40" as="geometry" />
        </mxCell>
        <mxCell id="WIyWlLk6GJQsqaUBKTNV-7" value="Registro/Login" style="rounded=1;whiteSpace=wrap;html=1;fontSize=12;glass=0;strokeWidth=1;shadow=0;" parent="WIyWlLk6GJQsqaUBKTNV-1" vertex="1">
          <mxGeometry x="160" y="170" width="120" height="40" as="geometry" />
        </mxCell>
        <mxCell id="WIyWlLk6GJQsqaUBKTNV-9" value="" style="edgeStyle=orthogonalEdgeStyle;rounded=0;html=1;jettySize=auto;orthogonalLoop=1;fontSize=11;endArrow=block;endFill=0;endSize=8;strokeWidth=1;shadow=0;labelBackgroundColor=none;exitX=1;exitY=0.5;exitDx=0;exitDy=0;" parent="WIyWlLk6GJQsqaUBKTNV-1" source="WIyWlLk6GJQsqaUBKTNV-3" target="WIyWlLk6GJQsqaUBKTNV-12" edge="1">
          <mxGeometry y="10" relative="1" as="geometry">
            <mxPoint as="offset" />
            <mxPoint x="270" y="330" as="sourcePoint" />
          </mxGeometry>
        </mxCell>
        <mxCell id="WIyWlLk6GJQsqaUBKTNV-11" value="Perfil cliente" style="rounded=1;whiteSpace=wrap;html=1;fontSize=12;glass=0;strokeWidth=1;shadow=0;" parent="WIyWlLk6GJQsqaUBKTNV-1" vertex="1">
          <mxGeometry x="258" y="300" width="120" height="40" as="geometry" />
        </mxCell>
        <mxCell id="WIyWlLk6GJQsqaUBKTNV-12" value="Ingreso" style="rounded=1;whiteSpace=wrap;html=1;fontSize=12;glass=0;strokeWidth=1;shadow=0;" parent="WIyWlLk6GJQsqaUBKTNV-1" vertex="1">
          <mxGeometry x="530" y="170" width="120" height="40" as="geometry" />
        </mxCell>
        <mxCell id="NtFpcMVyrMoMEvNkyP2i-2" value="" style="endArrow=none;html=1;rounded=0;entryX=0.45;entryY=0.95;entryDx=0;entryDy=0;entryPerimeter=0;" edge="1" parent="WIyWlLk6GJQsqaUBKTNV-1" target="WIyWlLk6GJQsqaUBKTNV-7">
          <mxGeometry width="50" height="50" relative="1" as="geometry">
            <mxPoint x="214" y="260" as="sourcePoint" />
            <mxPoint x="440" y="220" as="targetPoint" />
          </mxGeometry>
        </mxCell>
        <mxCell id="NtFpcMVyrMoMEvNkyP2i-3" value="" style="endArrow=classic;html=1;rounded=0;entryX=0.5;entryY=0;entryDx=0;entryDy=0;" edge="1" parent="WIyWlLk6GJQsqaUBKTNV-1" target="WIyWlLk6GJQsqaUBKTNV-11">
          <mxGeometry width="50" height="50" relative="1" as="geometry">
            <mxPoint x="210" y="260" as="sourcePoint" />
            <mxPoint x="110" y="220" as="targetPoint" />
          </mxGeometry>
        </mxCell>
        <mxCell id="NtFpcMVyrMoMEvNkyP2i-4" value="Perfil proveedor" style="rounded=1;whiteSpace=wrap;html=1;fontSize=12;glass=0;strokeWidth=1;shadow=0;" vertex="1" parent="WIyWlLk6GJQsqaUBKTNV-1">
          <mxGeometry x="52" y="300" width="120" height="40" as="geometry" />
        </mxCell>
        <mxCell id="NtFpcMVyrMoMEvNkyP2i-5" value="" style="endArrow=classic;html=1;rounded=0;entryX=0.5;entryY=0;entryDx=0;entryDy=0;" edge="1" parent="WIyWlLk6GJQsqaUBKTNV-1" target="NtFpcMVyrMoMEvNkyP2i-4">
          <mxGeometry width="50" height="50" relative="1" as="geometry">
            <mxPoint x="210" y="260" as="sourcePoint" />
            <mxPoint x="440" y="220" as="targetPoint" />
          </mxGeometry>
        </mxCell>
        <mxCell id="NtFpcMVyrMoMEvNkyP2i-49" style="edgeStyle=orthogonalEdgeStyle;rounded=0;orthogonalLoop=1;jettySize=auto;html=1;" edge="1" parent="WIyWlLk6GJQsqaUBKTNV-1" source="NtFpcMVyrMoMEvNkyP2i-6" target="NtFpcMVyrMoMEvNkyP2i-48">
          <mxGeometry relative="1" as="geometry" />
        </mxCell>
        <mxCell id="NtFpcMVyrMoMEvNkyP2i-6" value="Perfil cliente" style="rounded=1;whiteSpace=wrap;html=1;fontSize=12;glass=0;strokeWidth=1;shadow=0;" vertex="1" parent="WIyWlLk6GJQsqaUBKTNV-1">
          <mxGeometry x="440" y="380" width="120" height="40" as="geometry" />
        </mxCell>
        <mxCell id="NtFpcMVyrMoMEvNkyP2i-51" style="edgeStyle=orthogonalEdgeStyle;rounded=0;orthogonalLoop=1;jettySize=auto;html=1;" edge="1" parent="WIyWlLk6GJQsqaUBKTNV-1" source="NtFpcMVyrMoMEvNkyP2i-7" target="NtFpcMVyrMoMEvNkyP2i-50">
          <mxGeometry relative="1" as="geometry" />
        </mxCell>
        <mxCell id="NtFpcMVyrMoMEvNkyP2i-7" value="Perfil proveedor" style="rounded=1;whiteSpace=wrap;html=1;fontSize=12;glass=0;strokeWidth=1;shadow=0;" vertex="1" parent="WIyWlLk6GJQsqaUBKTNV-1">
          <mxGeometry x="650" y="380" width="120" height="40" as="geometry" />
        </mxCell>
        <mxCell id="NtFpcMVyrMoMEvNkyP2i-8" value="" style="endArrow=none;html=1;rounded=0;entryX=0.5;entryY=1;entryDx=0;entryDy=0;" edge="1" parent="WIyWlLk6GJQsqaUBKTNV-1" target="WIyWlLk6GJQsqaUBKTNV-12">
          <mxGeometry width="50" height="50" relative="1" as="geometry">
            <mxPoint x="590" y="260" as="sourcePoint" />
            <mxPoint x="600" y="240" as="targetPoint" />
          </mxGeometry>
        </mxCell>
        <mxCell id="NtFpcMVyrMoMEvNkyP2i-9" value="" style="endArrow=classic;html=1;rounded=0;entryX=0.5;entryY=0;entryDx=0;entryDy=0;exitX=0;exitY=0.75;exitDx=0;exitDy=0;" edge="1" parent="WIyWlLk6GJQsqaUBKTNV-1" source="NtFpcMVyrMoMEvNkyP2i-47" target="NtFpcMVyrMoMEvNkyP2i-6">
          <mxGeometry width="50" height="50" relative="1" as="geometry">
            <mxPoint x="600" y="320" as="sourcePoint" />
            <mxPoint x="440" y="270" as="targetPoint" />
          </mxGeometry>
        </mxCell>
        <mxCell id="NtFpcMVyrMoMEvNkyP2i-10" value="" style="endArrow=classic;html=1;rounded=0;entryX=0.5;entryY=0;entryDx=0;entryDy=0;exitX=1;exitY=0.75;exitDx=0;exitDy=0;" edge="1" parent="WIyWlLk6GJQsqaUBKTNV-1" source="NtFpcMVyrMoMEvNkyP2i-47" target="NtFpcMVyrMoMEvNkyP2i-7">
          <mxGeometry width="50" height="50" relative="1" as="geometry">
            <mxPoint x="600" y="320" as="sourcePoint" />
            <mxPoint x="700" y="240" as="targetPoint" />
          </mxGeometry>
        </mxCell>
        <mxCell id="NtFpcMVyrMoMEvNkyP2i-11" value="" style="endArrow=none;html=1;rounded=0;entryX=0;entryY=1;entryDx=0;entryDy=0;" edge="1" parent="WIyWlLk6GJQsqaUBKTNV-1" target="WIyWlLk6GJQsqaUBKTNV-11">
          <mxGeometry width="50" height="50" relative="1" as="geometry">
            <mxPoint x="257" y="500" as="sourcePoint" />
            <mxPoint x="297" y="370" as="targetPoint" />
          </mxGeometry>
        </mxCell>
        <mxCell id="NtFpcMVyrMoMEvNkyP2i-12" value="Nombre" style="rounded=0;whiteSpace=wrap;html=1;" vertex="1" parent="WIyWlLk6GJQsqaUBKTNV-1">
          <mxGeometry x="283" y="360" width="70" height="30" as="geometry" />
        </mxCell>
        <mxCell id="NtFpcMVyrMoMEvNkyP2i-13" value="Nombre o razón social" style="rounded=0;whiteSpace=wrap;html=1;" vertex="1" parent="WIyWlLk6GJQsqaUBKTNV-1">
          <mxGeometry x="72" y="360" width="80" height="30" as="geometry" />
        </mxCell>
        <mxCell id="NtFpcMVyrMoMEvNkyP2i-14" value="Correo" style="rounded=0;whiteSpace=wrap;html=1;" vertex="1" parent="WIyWlLk6GJQsqaUBKTNV-1">
          <mxGeometry x="283" y="400" width="70" height="30" as="geometry" />
        </mxCell>
        <mxCell id="NtFpcMVyrMoMEvNkyP2i-15" value="Dirección" style="rounded=0;whiteSpace=wrap;html=1;" vertex="1" parent="WIyWlLk6GJQsqaUBKTNV-1">
          <mxGeometry x="283" y="440" width="70" height="30" as="geometry" />
        </mxCell>
        <mxCell id="NtFpcMVyrMoMEvNkyP2i-16" value="Teléfono" style="rounded=0;whiteSpace=wrap;html=1;" vertex="1" parent="WIyWlLk6GJQsqaUBKTNV-1">
          <mxGeometry x="283" y="480" width="70" height="30" as="geometry" />
        </mxCell>
        <mxCell id="NtFpcMVyrMoMEvNkyP2i-17" value="" style="endArrow=classic;html=1;rounded=0;entryX=0;entryY=0.25;entryDx=0;entryDy=0;" edge="1" parent="WIyWlLk6GJQsqaUBKTNV-1" target="NtFpcMVyrMoMEvNkyP2i-16">
          <mxGeometry width="50" height="50" relative="1" as="geometry">
            <mxPoint x="257" y="490" as="sourcePoint" />
            <mxPoint x="657" y="480" as="targetPoint" />
          </mxGeometry>
        </mxCell>
        <mxCell id="NtFpcMVyrMoMEvNkyP2i-18" value="" style="endArrow=classic;html=1;rounded=0;entryX=0;entryY=0.5;entryDx=0;entryDy=0;" edge="1" parent="WIyWlLk6GJQsqaUBKTNV-1" target="NtFpcMVyrMoMEvNkyP2i-15">
          <mxGeometry width="50" height="50" relative="1" as="geometry">
            <mxPoint x="257" y="460" as="sourcePoint" />
            <mxPoint x="657" y="480" as="targetPoint" />
          </mxGeometry>
        </mxCell>
        <mxCell id="NtFpcMVyrMoMEvNkyP2i-19" value="" style="endArrow=classic;html=1;rounded=0;entryX=0;entryY=0.25;entryDx=0;entryDy=0;" edge="1" parent="WIyWlLk6GJQsqaUBKTNV-1" target="NtFpcMVyrMoMEvNkyP2i-14">
          <mxGeometry width="50" height="50" relative="1" as="geometry">
            <mxPoint x="257" y="410" as="sourcePoint" />
            <mxPoint x="657" y="480" as="targetPoint" />
          </mxGeometry>
        </mxCell>
        <mxCell id="NtFpcMVyrMoMEvNkyP2i-20" value="" style="endArrow=classic;html=1;rounded=0;entryX=0;entryY=0.25;entryDx=0;entryDy=0;" edge="1" parent="WIyWlLk6GJQsqaUBKTNV-1" target="NtFpcMVyrMoMEvNkyP2i-12">
          <mxGeometry width="50" height="50" relative="1" as="geometry">
            <mxPoint x="257" y="370" as="sourcePoint" />
            <mxPoint x="657" y="480" as="targetPoint" />
          </mxGeometry>
        </mxCell>
        <mxCell id="NtFpcMVyrMoMEvNkyP2i-21" value="Correo" style="rounded=0;whiteSpace=wrap;html=1;" vertex="1" parent="WIyWlLk6GJQsqaUBKTNV-1">
          <mxGeometry x="72" y="400" width="80" height="30" as="geometry" />
        </mxCell>
        <mxCell id="NtFpcMVyrMoMEvNkyP2i-22" value="Dirección" style="rounded=0;whiteSpace=wrap;html=1;" vertex="1" parent="WIyWlLk6GJQsqaUBKTNV-1">
          <mxGeometry x="72" y="440" width="80" height="30" as="geometry" />
        </mxCell>
        <mxCell id="NtFpcMVyrMoMEvNkyP2i-23" value="Teléfono" style="rounded=0;whiteSpace=wrap;html=1;" vertex="1" parent="WIyWlLk6GJQsqaUBKTNV-1">
          <mxGeometry x="72" y="520" width="80" height="30" as="geometry" />
        </mxCell>
        <mxCell id="NtFpcMVyrMoMEvNkyP2i-24" value="Rut" style="rounded=0;whiteSpace=wrap;html=1;" vertex="1" parent="WIyWlLk6GJQsqaUBKTNV-1">
          <mxGeometry x="72" y="480" width="80" height="30" as="geometry" />
        </mxCell>
        <mxCell id="NtFpcMVyrMoMEvNkyP2i-32" value="" style="endArrow=none;html=1;rounded=0;entryX=0;entryY=1;entryDx=0;entryDy=0;" edge="1" parent="WIyWlLk6GJQsqaUBKTNV-1" target="NtFpcMVyrMoMEvNkyP2i-4">
          <mxGeometry width="50" height="50" relative="1" as="geometry">
            <mxPoint x="52" y="530" as="sourcePoint" />
            <mxPoint x="232" y="490" as="targetPoint" />
          </mxGeometry>
        </mxCell>
        <mxCell id="NtFpcMVyrMoMEvNkyP2i-34" value="" style="endArrow=classic;html=1;rounded=0;entryX=0;entryY=0.25;entryDx=0;entryDy=0;" edge="1" parent="WIyWlLk6GJQsqaUBKTNV-1" target="NtFpcMVyrMoMEvNkyP2i-23">
          <mxGeometry width="50" height="50" relative="1" as="geometry">
            <mxPoint x="52" y="520" as="sourcePoint" />
            <mxPoint x="232" y="490" as="targetPoint" />
          </mxGeometry>
        </mxCell>
        <mxCell id="NtFpcMVyrMoMEvNkyP2i-36" value="" style="endArrow=classic;html=1;rounded=0;" edge="1" parent="WIyWlLk6GJQsqaUBKTNV-1">
          <mxGeometry width="50" height="50" relative="1" as="geometry">
            <mxPoint x="52" y="490" as="sourcePoint" />
            <mxPoint x="72" y="490" as="targetPoint" />
          </mxGeometry>
        </mxCell>
        <mxCell id="NtFpcMVyrMoMEvNkyP2i-37" value="" style="endArrow=classic;html=1;rounded=0;entryX=0;entryY=0.5;entryDx=0;entryDy=0;" edge="1" parent="WIyWlLk6GJQsqaUBKTNV-1" target="NtFpcMVyrMoMEvNkyP2i-22">
          <mxGeometry width="50" height="50" relative="1" as="geometry">
            <mxPoint x="52" y="450" as="sourcePoint" />
            <mxPoint x="232" y="490" as="targetPoint" />
          </mxGeometry>
        </mxCell>
        <mxCell id="NtFpcMVyrMoMEvNkyP2i-39" value="" style="endArrow=classic;html=1;rounded=0;entryX=0;entryY=0.5;entryDx=0;entryDy=0;" edge="1" parent="WIyWlLk6GJQsqaUBKTNV-1" target="NtFpcMVyrMoMEvNkyP2i-21">
          <mxGeometry width="50" height="50" relative="1" as="geometry">
            <mxPoint x="52" y="410" as="sourcePoint" />
            <mxPoint x="232" y="490" as="targetPoint" />
          </mxGeometry>
        </mxCell>
        <mxCell id="NtFpcMVyrMoMEvNkyP2i-40" value="" style="endArrow=classic;html=1;rounded=0;entryX=0;entryY=0.5;entryDx=0;entryDy=0;" edge="1" parent="WIyWlLk6GJQsqaUBKTNV-1" target="NtFpcMVyrMoMEvNkyP2i-13">
          <mxGeometry width="50" height="50" relative="1" as="geometry">
            <mxPoint x="52" y="370" as="sourcePoint" />
            <mxPoint x="232" y="490" as="targetPoint" />
          </mxGeometry>
        </mxCell>
        <mxCell id="NtFpcMVyrMoMEvNkyP2i-45" value="" style="endArrow=classic;html=1;rounded=0;exitX=1;exitY=0.5;exitDx=0;exitDy=0;" edge="1" parent="WIyWlLk6GJQsqaUBKTNV-1" source="NtFpcMVyrMoMEvNkyP2i-43">
          <mxGeometry width="50" height="50" relative="1" as="geometry">
            <mxPoint x="587" y="590" as="sourcePoint" />
            <mxPoint x="327" y="600" as="targetPoint" />
          </mxGeometry>
        </mxCell>
        <mxCell id="NtFpcMVyrMoMEvNkyP2i-46" value="Crear ficha mascota (ingresa los datos)" style="rounded=1;whiteSpace=wrap;html=1;" vertex="1" parent="WIyWlLk6GJQsqaUBKTNV-1">
          <mxGeometry x="264" y="600" width="120" height="60" as="geometry" />
        </mxCell>
        <mxCell id="NtFpcMVyrMoMEvNkyP2i-47" value="Ingresan credenciales" style="rounded=1;whiteSpace=wrap;html=1;" vertex="1" parent="WIyWlLk6GJQsqaUBKTNV-1">
          <mxGeometry x="530" y="250" width="120" height="60" as="geometry" />
        </mxCell>
        <mxCell id="NtFpcMVyrMoMEvNkyP2i-48" value="Muestra las mascotas y acciones (añadir, eliminar, modificar, cosa premium)" style="rounded=1;whiteSpace=wrap;html=1;" vertex="1" parent="WIyWlLk6GJQsqaUBKTNV-1">
          <mxGeometry x="440" y="480" width="120" height="70" as="geometry" />
        </mxCell>
        <mxCell id="NtFpcMVyrMoMEvNkyP2i-50" value="Muestra sus productos/servicios y acciones (actualizar datos, publicar productos)" style="rounded=1;whiteSpace=wrap;html=1;" vertex="1" parent="WIyWlLk6GJQsqaUBKTNV-1">
          <mxGeometry x="650" y="480" width="120" height="70" as="geometry" />
        </mxCell>
        <mxCell id="NtFpcMVyrMoMEvNkyP2i-52" value="Visualizar feed (los premium no ven anuncios)" style="rounded=1;whiteSpace=wrap;html=1;" vertex="1" parent="WIyWlLk6GJQsqaUBKTNV-1">
          <mxGeometry x="384" y="740" width="120" height="60" as="geometry" />
        </mxCell>
        <mxCell id="NtFpcMVyrMoMEvNkyP2i-53" value="" style="endArrow=classic;html=1;rounded=0;exitX=0.45;exitY=1.017;exitDx=0;exitDy=0;exitPerimeter=0;entryX=0.433;entryY=-0.05;entryDx=0;entryDy=0;entryPerimeter=0;" edge="1" parent="WIyWlLk6GJQsqaUBKTNV-1" source="NtFpcMVyrMoMEvNkyP2i-46" target="NtFpcMVyrMoMEvNkyP2i-52">
          <mxGeometry width="50" height="50" relative="1" as="geometry">
            <mxPoint x="310" y="730" as="sourcePoint" />
            <mxPoint x="360" y="680" as="targetPoint" />
          </mxGeometry>
        </mxCell>
        <mxCell id="NtFpcMVyrMoMEvNkyP2i-54" value="" style="endArrow=classic;html=1;rounded=0;exitX=0.442;exitY=1;exitDx=0;exitDy=0;exitPerimeter=0;entryX=0.417;entryY=-0.017;entryDx=0;entryDy=0;entryPerimeter=0;" edge="1" parent="WIyWlLk6GJQsqaUBKTNV-1" source="NtFpcMVyrMoMEvNkyP2i-48" target="NtFpcMVyrMoMEvNkyP2i-52">
          <mxGeometry width="50" height="50" relative="1" as="geometry">
            <mxPoint x="310" y="730" as="sourcePoint" />
            <mxPoint x="360" y="680" as="targetPoint" />
          </mxGeometry>
        </mxCell>
        <mxCell id="NtFpcMVyrMoMEvNkyP2i-55" value="Muestra sus productos/servicios y acciones (actualizar datos, publicar productos)" style="rounded=1;whiteSpace=wrap;html=1;" vertex="1" parent="WIyWlLk6GJQsqaUBKTNV-1">
          <mxGeometry x="52" y="600" width="120" height="70" as="geometry" />
        </mxCell>
        <mxCell id="NtFpcMVyrMoMEvNkyP2i-56" value="" style="endArrow=classic;html=1;rounded=0;exitX=1;exitY=0.5;exitDx=0;exitDy=0;" edge="1" parent="WIyWlLk6GJQsqaUBKTNV-1" source="NtFpcMVyrMoMEvNkyP2i-44" target="NtFpcMVyrMoMEvNkyP2i-55">
          <mxGeometry width="50" height="50" relative="1" as="geometry">
            <mxPoint x="310" y="580" as="sourcePoint" />
            <mxPoint x="360" y="530" as="targetPoint" />
          </mxGeometry>
        </mxCell>
      </root>
    </mxGraphModel>
  </diagram>
</mxfile>
